<?xml version="1.0" encoding="UTF-8"?>
<svg xmlns="http://www.w3.org/2000/svg" width="420" height="298" viewBox="0 0 420 298" fill="none">
  <g clip-path="url(#clip0_8_2)">
    <path d="M278.664 9.6552C259.527 3.576 235.817 0 210.06 0C184.303 0 160.472 3.576 141.456 9.6552C90.5443 25.8664 55.7607 59.4808 55.7607 98.2208C55.7607 152.814 124.846 197.038 210.06 197.038C295.274 197.038 364.359 152.814 364.359 98.2208C364.359 59.4808 329.455 25.8664 278.664 9.6552ZM210.06 154.602C197.302 154.602 186.951 129.809 186.349 98.6976C194.052 99.4128 201.876 99.7704 210.06 99.7704C218.244 99.7704 226.068 99.4128 233.771 98.6976C233.169 129.809 222.698 154.602 210.06 154.602ZM187.914 74.3808C191.404 52.5672 199.95 37.0712 210.06 37.0712C220.05 37.0712 228.715 52.5672 232.206 74.3808C225.105 74.9768 217.763 75.3344 210.06 75.3344C202.357 75.3344 195.015 74.9768 187.914 74.3808ZM245.686 72.712C240.511 38.3824 226.549 13.8272 210.06 13.8272C193.571 13.8272 179.609 38.3824 174.434 72.712C143.141 67.8248 121.115 56.8584 121.115 43.9848C121.115 26.7008 160.954 12.6352 210.06 12.6352C259.166 12.6352 298.884 26.7008 298.884 43.9848C298.884 56.8584 276.979 67.8248 245.686 72.712ZM78.2677 94.6448C78.2677 77.9568 84.7671 62.2224 96.0807 48.7528C95.9604 49.7064 95.84 50.66 95.84 51.6136C95.84 72.712 127.735 90.592 172.267 97.148C172.267 98.6976 172.147 100.366 172.147 101.916C172.147 141.014 183.1 174.27 198.265 185.714C131.105 181.542 78.2677 142.325 78.2677 94.6448ZM221.614 185.594C236.779 174.151 247.732 141.014 247.732 101.797C247.732 100.247 247.732 98.5784 247.732 97.0288C292.265 90.4728 324.16 72.5928 324.16 51.4944C324.16 50.5408 324.039 49.5872 323.919 48.6336C335.233 62.1032 341.732 77.8376 341.732 94.5256C341.852 142.325 289.015 181.542 221.614 185.594Z" fill="black"></path>
    <path d="M61.0566 226.838H1.11816V240.069H23.2641V295.974H38.9106V240.069H61.0566V226.838Z" fill="black"></path>
    <path d="M101.497 224.811C81.0359 224.811 64.5469 241.142 64.5469 261.406C64.5469 281.55 81.0359 298 101.497 298C121.837 298 138.447 281.67 138.447 261.406C138.447 241.261 121.837 224.811 101.497 224.811ZM119.551 272.491C117.143 278.57 111.727 283.1 105.108 284.173C103.904 284.411 102.7 284.53 101.497 284.53C100.293 284.53 99.0897 284.411 97.8861 284.173C91.2664 282.981 85.8503 278.451 83.4431 272.491C82.1192 269.034 81.2767 265.339 81.2767 261.406C81.2767 257.472 81.9988 253.777 83.4431 250.32C85.8503 244.241 91.2664 239.711 97.8861 238.638C99.0897 238.4 100.293 238.281 101.497 238.281C102.7 238.281 103.904 238.4 105.108 238.638C111.727 239.83 117.143 244.36 119.551 250.32C120.875 253.777 121.597 257.472 121.597 261.406C121.717 265.339 120.875 269.034 119.551 272.491Z" fill="black"></path>
    <path d="M138.688 226.838H157.102L174.314 256.518L191.645 226.838H210.06L182.257 270.346V295.974H166.49V270.346L138.688 226.838Z" fill="black"></path>
    <path d="M210.421 261.406C210.421 241.261 226.91 224.811 247.371 224.811C267.711 224.811 284.321 241.142 284.321 261.406C284.321 281.55 267.832 298 247.371 298C226.91 298 210.421 281.55 210.421 261.406ZM247.371 284.53C248.574 284.53 249.778 284.411 250.982 284.173C257.601 282.981 263.017 278.451 265.425 272.491C266.749 269.034 267.591 265.339 267.591 261.406C267.591 257.472 266.869 253.777 265.425 250.32C263.017 244.241 257.601 239.711 250.982 238.638C249.778 238.4 248.574 238.281 247.371 238.281C246.167 238.281 244.964 238.4 243.76 238.638C237.14 239.83 231.724 244.36 229.317 250.32C227.993 253.777 227.151 257.472 227.151 261.406C227.151 265.339 227.873 269.034 229.317 272.491C231.724 278.57 237.14 283.1 243.76 284.173C244.843 284.411 246.047 284.53 247.371 284.53Z" fill="black"></path>
    <path d="M395.773 280.716H366.165L360.508 295.854H342.936L371.22 226.838H390.718L419.002 295.854H401.55L395.773 280.716ZM391.199 268.558L380.969 241.261L370.738 268.558H391.199Z" fill="black"></path>
    <path d="M347.509 226.838H287.691V240.069H309.716V295.974H325.483V240.069H347.509V226.838Z" fill="black"></path>
  </g>
  <defs>
    <clipPath id="clip0_8_2">
      <rect width="420" height="298" fill="white"></rect>
    </clipPath>
  </defs>
</svg>
